<?xml version="1.0" encoding="UTF-8"?>
<svg id="Layer_2" data-name="Layer 2" xmlns="http://www.w3.org/2000/svg" viewBox="0 0 277.44 60">
  <defs>
    <style>
      .cls-1 {
        fill: #6b6a6a;
      }

      .cls-2 {
        fill: #e30427;
      }
    </style>
  </defs>
  <g id="Layer_1-2" data-name="Layer 1">
    <g>
      <g>
        <g>
          <path class="cls-1" d="m70.28,47.08l-5.03-10.53c-.74-1.5,1.5-2.74,2.34-1.16l1.69,3.83,2.19,5.03,2.15-5.03,1.69-3.83c.76-1.45,2.97-.53,2.32,1.05l-4.85,10.64c-.44,1.2-1.79,1.48-2.51,0Z"/>
          <path class="cls-1" d="m84.12,35.32l3.33,4.97,3.37-4.97c1.01-1.39,3.12,0,2.13,1.28l-4.3,6.23v3.94c0,1.67-2.51,1.64-2.51-.02v-3.92l-4.15-6.23c-.91-1.22,1.14-2.76,2.13-1.28Zm5.48-2.89l-2.04,1.35c-1.2.74-2.44-.91-1.2-1.73l1.83-1.35c1.24-.91,2.57.88,1.41,1.73Z"/>
          <path class="cls-1" d="m98.15,46.74v-10.81c0-.67.51-1.16,1.14-1.16h5.06c4.84,0,5.83,6.47,1.79,8.09l2.53,3.08c.99,1.47-.99,2.88-2.13,1.43l-2.87-4.11h-2.99v3.45c0,1.66-2.53,1.71-2.53.04Zm6.21-5.67c2.47,0,2.63-4,0-4h-3.67v4h3.67Z"/>
          <path class="cls-1" d="m120.96,48.13c-3.52.15-7.18-2.19-7.18-6.85s3.66-6.99,7.18-6.99c3.33.17,6.82,2.47,6.82,6.99s-3.48,6.85-6.82,6.85Zm-.21-11.37c-2.13,0-4.46,1.5-4.46,4.51s2.32,4.51,4.46,4.51,4.53-1.52,4.53-4.51-2.34-4.51-4.53-4.51Z"/>
          <path class="cls-1" d="m133.31,46.76v-10.81c0-.69.48-1.18,1.16-1.18h5.35c2.49,0,3.85,1.7,3.85,3.64,0,.86-.25,1.69-1.05,2.4,1.5.59,2.17,1.75,2.17,3.16,0,2.19-1.48,3.98-4.34,3.98h-5.98c-.69,0-1.16-.51-1.16-1.18Zm6.51-9.67h-4.02v2.84h4.02c.82,0,1.33-.51,1.33-1.52,0-.63-.51-1.31-1.33-1.31Zm.63,8.53c2.21,0,2.21-3.37,0-3.37h-4.65v3.37h4.65Z"/>
          <path class="cls-1" d="m150.29,36.1c0-.69.15-1.35,1.14-1.35.69,0,.84.17,1.35.67l6.3,7.88v-7.39c0-.63.55-1.31,1.2-1.31.69,0,1.35.69,1.35,1.31v10.72c0,.84-.51,1.16-1.01,1.31-.67,0-.99-.15-1.54-.67l-6.3-8v7.35c0,.84-.51,1.31-1.2,1.31s-1.29-.48-1.29-1.31v-10.53Z"/>
          <path class="cls-1" d="m170.66,32.31l-2.04,1.35c-1.2.74-2.44-.91-1.2-1.73l1.83-1.35c1.24-.91,2.57.88,1.41,1.73Zm-.49,3.6v10.87c0,1.58-2.51,1.62-2.51,0v-10.87c0-1.56,2.51-1.62,2.51,0Z"/>
          <path class="cls-1" d="m185.02,46.74v-10.81c0-.67.51-1.16,1.14-1.16h5.06c4.84,0,5.83,6.47,1.79,8.09l2.53,3.08c.99,1.47-.99,2.88-2.13,1.43l-2.88-4.11h-2.99v3.45c0,1.66-2.53,1.71-2.53.04Zm6.21-5.67c2.47,0,2.63-4,0-4h-3.67v4h3.67Z"/>
          <path class="cls-1" d="m201.1,46.76v-10.81c0-.69.51-1.18,1.18-1.18h6.83c1.75,0,1.71,2.47,0,2.47h-5.48v2.86h4.8c1.69,0,1.69,2.49,0,2.49h-4.8v2.86h5.81c1.73,0,1.87,2.49,0,2.49h-7.16c-.67,0-1.18-.51-1.18-1.18Z"/>
          <path class="cls-1" d="m217.38,34.59h4.4c2.47,0,4.7,1.66,4.7,4.84,0,3.01-2.23,4.68-4.7,4.68h-3.18v2.51c0,.84-.53,1.31-1.22,1.31-.63,0-1.29-.48-1.29-1.31v-10.72c0-.63.49-1.31,1.29-1.31Zm1.22,7.14h3.18c1.28,0,2.28-1.12,2.28-2.3,0-1.33-1.01-2.44-2.28-2.44h-3.18v4.74Z"/>
          <path class="cls-1" d="m238.44,48.13c-3.52.15-7.18-2.19-7.18-6.85s3.66-6.99,7.18-6.99c3.33.17,6.82,2.47,6.82,6.99s-3.48,6.85-6.82,6.85Zm-.21-11.37c-2.13,0-4.46,1.5-4.46,4.51s2.32,4.51,4.46,4.51,4.53-1.52,4.53-4.51-2.34-4.51-4.53-4.51Z"/>
          <path class="cls-1" d="m250.81,46.74v-10.81c0-.67.51-1.16,1.14-1.16h5.06c4.84,0,5.83,6.47,1.79,8.09l2.53,3.08c.99,1.47-.99,2.88-2.13,1.43l-2.87-4.11h-2.99v3.45c0,1.66-2.53,1.71-2.53.04Zm6.21-5.67c2.47,0,2.63-4,0-4h-3.67v4h3.67Z"/>
          <path class="cls-1" d="m270.49,37.14h-3.33c-1.66,0-1.66-2.44,0-2.44h9.01c1.69,0,1.69,2.44,0,2.44h-3.16v9.61c0,1.66-2.51,1.69-2.51,0v-9.61Z"/>
        </g>
        <g>
          <path class="cls-2" d="m65.84,25.52c-.25-.23-.37-.52-.37-.87v-11.09c0-.36.12-.66.37-.88.25-.22.59-.33,1.02-.33.34,0,.62.11.85.34.23.23.34.52.34.87v4.26h6.37v-4.26c0-.34.13-.62.39-.86.26-.23.57-.35.94-.35.34,0,.62.11.86.34s.35.52.35.87v11.09c0,.34-.12.62-.35.86-.23.23-.52.35-.86.35s-.66-.12-.93-.35c-.27-.23-.4-.52-.4-.86v-4.28h-6.37v4.28c0,.34-.11.62-.34.86-.23.23-.51.35-.85.35-.43,0-.77-.11-1.02-.34Z"/>
          <path class="cls-2" d="m83.18,25.91c-.21,0-.36-.01-.47-.04-.23-.13-.42-.3-.57-.52-.14-.22-.21-.45-.21-.71,0-.22.05-.44.16-.65l5.6-10.96c.13-.26.31-.46.53-.6.22-.14.46-.2.7-.2s.48.07.69.2c.21.14.38.34.5.6l5.51,10.96c.1.2.16.4.16.62,0,.37-.14.67-.42.92s-.6.37-.95.37c-.22,0-.42-.06-.61-.18-.18-.12-.33-.29-.45-.53l-.86-1.72h-7.21l-.84,1.72c-.22.47-.64.7-1.27.7Zm5.72-9.82l-2.4,4.82h4.61l-2.21-4.82Z"/>
          <path class="cls-2" d="m102.91,25.55c-.27.23-.58.35-.93.35s-.65-.11-.9-.33c-.25-.22-.37-.53-.37-.94v-11.09c0-.34.11-.62.34-.85.23-.23.5-.34.83-.34h5.19c.91,0,1.7.21,2.37.62s1.18.96,1.52,1.64c.34.68.52,1.39.52,2.15,0,.85-.22,1.62-.65,2.32-.44.7-1.08,1.22-1.92,1.56l2.6,3.16c.18.27.27.55.27.84,0,.35-.13.65-.38.89-.25.24-.56.36-.91.36-.46,0-.85-.21-1.17-.62l-2.95-4.22h-3.07v3.53c0,.4-.13.72-.4.96Zm4.17-6.74c.61,0,1.09-.21,1.44-.62.35-.42.53-.9.53-1.46s-.17-1.02-.52-1.42c-.35-.4-.83-.6-1.45-.6h-3.77v4.1h3.77Z"/>
          <path class="cls-2" d="m117.64,25.56c-.27-.2-.4-.5-.4-.91v-11.09c0-.34.14-.62.42-.86s.59-.35.93-.35h4.47c1.42,0,2.63.32,3.63.96,1,.64,1.75,1.47,2.26,2.5.5,1.03.75,2.13.75,3.3s-.25,2.27-.74,3.3c-.5,1.03-1.23,1.86-2.21,2.5-.98.64-2.15.96-3.52.96h-4.65c-.36,0-.68-.1-.95-.3Zm2.18-2.08h3.24c.85,0,1.58-.21,2.19-.63.61-.42,1.07-.97,1.39-1.65.31-.68.47-1.4.47-2.17s-.15-1.44-.46-2.1c-.31-.66-.76-1.19-1.38-1.59-.61-.4-1.35-.6-2.21-.6h-3.24v8.75Z"/>
          <path class="cls-2" d="m148.95,21.2l2.91-8.05c.12-.29.28-.5.49-.65.21-.15.44-.23.7-.23.34,0,.63.11.89.34.25.23.38.52.38.87,0,.16-.03.33-.1.53l-3.87,10.49c-.17.55-.35.93-.55,1.13-.2.21-.46.31-.8.31-.31,0-.55-.08-.71-.24-.16-.16-.36-.46-.6-.89l-3.4-7.71-3.24,7.6c-.2.44-.39.77-.6.98-.2.21-.47.31-.79.31s-.59-.11-.79-.32c-.2-.22-.39-.55-.56-1.01l-3.79-10.64c-.07-.2-.1-.36-.1-.51,0-.38.13-.68.39-.9.26-.22.57-.33.92-.33.26,0,.5.08.72.23.22.15.38.37.47.65l2.89,8.05,3.46-8.05c.12-.29.28-.51.48-.67.2-.16.41-.24.63-.24s.43.07.62.22.35.36.47.64l3.46,8.1Z"/>
          <path class="cls-2" d="m158.68,25.91c-.21,0-.36-.01-.47-.04-.23-.13-.42-.3-.57-.52-.14-.22-.21-.45-.21-.71,0-.22.05-.44.16-.65l5.6-10.96c.13-.26.31-.46.53-.6.22-.14.46-.2.7-.2s.48.07.69.2c.21.14.38.34.5.6l5.51,10.96c.1.2.16.4.16.62,0,.37-.14.67-.42.92s-.6.37-.95.37c-.22,0-.42-.06-.61-.18-.18-.12-.33-.29-.45-.53l-.86-1.72h-7.21l-.84,1.72c-.22.47-.64.7-1.27.7Zm5.72-9.82l-2.4,4.82h4.61l-2.21-4.82Z"/>
          <path class="cls-2" d="m178.41,25.55c-.27.23-.58.35-.93.35s-.65-.11-.9-.33c-.25-.22-.37-.53-.37-.94v-11.09c0-.34.11-.62.34-.85.23-.23.5-.34.83-.34h5.19c.91,0,1.7.21,2.37.62s1.18.96,1.52,1.64c.34.68.52,1.39.52,2.15,0,.85-.22,1.62-.65,2.32-.44.7-1.08,1.22-1.92,1.56l2.6,3.16c.18.27.27.55.27.84,0,.35-.13.65-.38.89-.25.24-.56.36-.91.36-.46,0-.85-.21-1.17-.62l-2.95-4.22h-3.07v3.53c0,.4-.13.72-.4.96Zm4.17-6.74c.61,0,1.09-.21,1.44-.62.35-.42.53-.9.53-1.46s-.17-1.02-.52-1.42c-.35-.4-.83-.6-1.45-.6h-3.77v4.1h3.77Z"/>
          <path class="cls-2" d="m192.87,13.52c0-.38.13-.68.39-.9.26-.22.57-.33.92-.33s.65.11.9.32c.25.22.37.52.37.91v11.15c0,.39-.13.69-.38.91-.25.21-.56.32-.93.32-.34,0-.63-.11-.89-.32-.25-.22-.38-.52-.38-.91v-11.15Z"/>
          <path class="cls-2" d="m214.52,22.83c-.67,1.06-1.54,1.86-2.61,2.41-1.07.55-2.19.82-3.38.82-1.25.05-2.44-.19-3.56-.71-1.13-.53-2.04-1.33-2.74-2.41-.7-1.08-1.05-2.38-1.05-3.91s.35-2.82,1.05-3.91,1.62-1.89,2.74-2.44c1.13-.55,2.31-.82,3.56-.82,1.2.07,2.33.38,3.4.94,1.07.56,1.93,1.37,2.6,2.43.66,1.06,1,2.33,1,3.8s-.34,2.74-1.01,3.8Zm-2.23-6.32c-.45-.7-1.03-1.23-1.74-1.58-.71-.35-1.45-.53-2.24-.53s-1.48.18-2.19.53-1.28.88-1.72,1.58c-.44.7-.66,1.54-.66,2.52s.22,1.81.66,2.51c.44.7,1.02,1.22,1.72,1.58.7.36,1.43.54,2.19.54s1.53-.18,2.24-.54c.71-.36,1.29-.88,1.74-1.58s.67-1.53.67-2.51-.22-1.82-.67-2.52Z"/>
        </g>
      </g>
      <g>
        <path class="cls-2" d="m5.4,0C2.42,0,0,2.42,0,5.4h0c0,2.28,1.45,4.32,3.6,5.08v13.52c0,.99.81,1.8,1.8,1.8.19,0,.37-.03.55-.09l13.77-4.44c1.02,1.34,2.6,2.12,4.28,2.13,2.98,0,5.4-2.42,5.4-5.4h0c0-2.98-2.42-5.4-5.4-5.4-2.92,0-5.31,2.33-5.39,5.25l-11.41,3.68v-11.05c2.15-.76,3.59-2.79,3.6-5.08C10.8,2.42,8.38,0,5.4,0h0s0,0,0,0Z"/>
        <path class="cls-2" d="m42.6,60c2.98,0,5.4-2.42,5.4-5.4h0c0-2.28-1.45-4.32-3.6-5.08v-13.52c0-.99-.81-1.8-1.8-1.8-.19,0-.37.03-.55.09l-13.77,4.44c-1.02-1.34-2.6-2.12-4.28-2.13-2.98,0-5.4,2.42-5.4,5.4h0c0,2.98,2.42,5.4,5.4,5.4h0c2.92,0,5.31-2.33,5.39-5.25l11.41-3.68v11.05c-2.15.76-3.59,2.79-3.6,5.08,0,2.98,2.42,5.4,5.4,5.4h0Z"/>
        <path class="cls-1" d="m42.6,0c-2.98,0-5.4,2.42-5.4,5.4h0c0,2.29,1.44,4.33,3.6,5.09v12.2L4.85,34.29c-.74.24-1.25.93-1.24,1.71v13.51C1.44,50.27,0,52.31,0,54.6c0,2.98,2.42,5.4,5.4,5.4h0c2.98,0,5.4-2.42,5.4-5.4h0c0-2.29-1.44-4.33-3.6-5.09v-12.2l35.95-11.6c.74-.24,1.25-.93,1.25-1.71v-13.52c2.15-.76,3.6-2.8,3.6-5.09C48,2.42,45.58,0,42.6,0h0s0,0,0,0Z"/>
      </g>
    </g>
  </g>
</svg>